<svg width="48" height="48" viewBox="0 0 48 48" fill="none" xmlns="http://www.w3.org/2000/svg">
<rect width="48" height="48" fill="white"/>
<path d="M6 9C6 6.79086 7.79086 5 10 5H38C40.2091 5 42 6.79086 42 9V25H6V9Z" stroke="#152C5B" stroke-width="2"/>
<path d="M10 17C10 15.3431 11.3431 14 13 14H18C19.6569 14 21 15.3431 21 17V25H10V17Z" stroke="#F6577C" stroke-width="2"/>
<path d="M27 17C27 15.3431 28.3431 14 30 14H35C36.6569 14 38 15.3431 38 17V25H27V17Z" stroke="#F6577C" stroke-width="2"/>
<line x1="6" y1="39" x2="6" y2="45" stroke="#152C5B" stroke-width="2" stroke-linecap="round"/>
<line x1="42" y1="39" x2="42" y2="45" stroke="#152C5B" stroke-width="2" stroke-linecap="round"/>
<line x1="6" y1="42" x2="42" y2="42" stroke="#152C5B" stroke-width="2"/>
<rect x="1" y="25" width="46" height="13" rx="2" stroke="#152C5B" stroke-width="2"/>
</svg>
