<svg width="48" height="48" viewBox="0 0 48 48" fill="none" xmlns="http://www.w3.org/2000/svg">
<rect width="48" height="48" fill="white"/>
<line x1="8" y1="35" x2="8" y2="45" stroke="#152C5B" stroke-width="2" stroke-linecap="round"/>
<line x1="37" y1="35" x2="37" y2="45" stroke="#152C5B" stroke-width="2" stroke-linecap="round"/>
<path d="M16.6892 20H5.14152C4.7437 20 4.38372 20.2358 4.22479 20.6005L1.60993 26.6005C1.32206 27.261 1.80611 28 2.52665 28H42.5729C43.2667 28 43.7497 27.3108 43.5129 26.6586L41.3338 20.6586C41.1902 20.2633 40.8145 20 40.3939 20H29.473" stroke="#152C5B" stroke-width="2"/>
<path d="M32.3311 16.6081C32.3311 17.2919 31.7045 18.2163 29.9783 19.0286C28.3306 19.804 25.9839 20.3108 23.3378 20.3108C20.6918 20.3108 18.3451 19.804 16.6973 19.0286C14.9712 18.2163 14.3446 17.2919 14.3446 16.6081C14.3446 15.9244 14.9712 14.9999 16.6973 14.1876C18.3451 13.4122 20.6918 12.9054 23.3378 12.9054C25.9839 12.9054 28.3306 13.4122 29.9783 14.1876C31.7045 14.9999 32.3311 15.9244 32.3311 16.6081Z" stroke="#F6577C" stroke-width="2"/>
<path d="M15.7568 17.3463C15.3957 16.9284 14.7643 16.8822 14.3463 17.2432C13.9284 17.6043 13.8822 18.2357 14.2432 18.6537L15.7568 17.3463ZM32.7959 18.1055C33.1303 17.6659 33.045 17.0385 32.6055 16.7041C32.1659 16.3697 31.5385 16.455 31.2041 16.8945L32.7959 18.1055ZM19.8004 23.5574L19.0436 24.2111L19.8004 23.5574ZM14.2432 18.6537L19.0436 24.2111L20.5571 22.9037L15.7568 17.3463L14.2432 18.6537ZM21.3139 25.25H25.8734V23.25H21.3139V25.25ZM28.261 24.0664L32.7959 18.1055L31.2041 16.8945L26.6693 22.8555L28.261 24.0664ZM25.8734 25.25C26.8105 25.25 27.6937 24.8122 28.261 24.0664L26.6693 22.8555C26.4802 23.1041 26.1858 23.25 25.8734 23.25V25.25ZM19.0436 24.2111C19.6135 24.8708 20.4421 25.25 21.3139 25.25V23.25C21.0233 23.25 20.7471 23.1236 20.5571 22.9037L19.0436 24.2111Z" fill="#F6577C"/>
<path d="M4 28H42V32C42 33.1046 41.1046 34 40 34H6C4.89543 34 4 33.1046 4 32V28Z" stroke="#152C5B" stroke-width="2"/>
</svg>
