<svg width="48" height="48" viewBox="0 0 48 48" fill="none" xmlns="http://www.w3.org/2000/svg">
<rect width="48" height="48" fill="white"/>
<circle cx="24" cy="40" r="4" stroke="#F6577C" stroke-width="2"/>
<path d="M34.1981 31C31.5218 28.5177 27.9381 27 24 27C20.0618 27 16.4781 28.5177 13.8018 31" stroke="#152C5B" stroke-width="2" stroke-linecap="round"/>
<path d="M38 23.7502C34.1223 20.7711 29.268 19 24 19C18.732 19 13.8777 20.7711 10 23.7502" stroke="#152C5B" stroke-width="2" stroke-linecap="round"/>
<path d="M6.68246 17.5C11.5745 14.0358 17.5495 12 24 12C30.4505 12 36.4255 14.0358 41.3175 17.5" stroke="#152C5B" stroke-width="2" stroke-linecap="round"/>
<path d="M2.5 10.6628C8.61419 6.4599 16.0198 4 24 4C31.9802 4 39.3858 6.4599 45.5 10.6628" stroke="#152C5B" stroke-width="2" stroke-linecap="round"/>
</svg>
